<svg viewBox="-10 -10 120 120" version="1.1" xmlns="http://www.w3.org/2000/svg" xmlns:xlink="http://www.w3.org/1999/xlink">
    <g id="Page-1" stroke="none" stroke-width="1" fill="none" fill-rule="evenodd">
     <rect id="box" x="0" y="0" width="100" height="100" stroke-width=".1" stroke="#000000"></rect>
        <g id="energetic" transform="translate(1.000000, 1.000000)" stroke="#8A2423" stroke-width="0.5">
            <polyline id="Path" points="0 100 0.196721311 93.6724138 1.21311475 85.1724138 2.2295082 75.1724138 3.24590164 64.3103448 4.26229508 53.1896552 5.27868852 42.3534483 6.29508197 32.2413793 7.31147541 23.2413793 8.32786885 15.5948276 9.3442623 9.48275862 10.3606557 4.98275862 11.3770492 2.0862069 12.3934426 0.715517241 13.4098361 0.75 14.4262295 1.98275862 15.442623 4.22413793 16.4590164 7.22413793 17.4754098 10.7586207 18.4918033 14.6034483 19.5081967 18.5344828 20.5245902 22.3706897 21.5409836 25.9396552 22.557377 29.1206897 23.5737705 31.8275862 24.5901639 33.9827586 25.6065574 35.5775862 26.6229508 36.6034483 27.6393443 37.0862069 28.6557377 37.0775862 29.6721311 36.637931 30.6885246 35.8448276 31.704918 34.7844828 32.7213115 33.5344828 33.7377049 32.1724138 34.7540984 30.7844828 35.7704918 29.4310345 36.7868852 28.1724138 37.8032787 27.0431034 38.8196721 26.0862069 39.8360656 25.3189655 40.852459 24.7586207 41.8688525 24.3965517 42.8852459 24.2241379 43.9016393 24.2327586 44.9180328 24.387931 45.9344262 24.6637931 46.9508197 25.0431034 47.9672131 25.4827586 48.9836066 25.9655172 50 26.4568966 51.0163934 26.9310345 52.0327869 27.3793103 53.0491803 27.7758621 54.0655738 28.112069 55.0819672 28.387931 56.0983607 28.5862069 57.1147541 28.7155172 58.1311475 28.7758621 59.147541 28.7758621 60.1639344 28.7155172 61.1803279 28.6206897 62.1967213 28.4827586 63.2131148 28.3275862 64.2295082 28.1637931 65.2459016 27.9827586 66.2622951 27.8189655 67.2786885 27.6551724 68.295082 27.5172414 69.3114754 27.3965517 70.3278689 27.3017241 71.3442623 27.2327586 72.3606557 27.1896552 73.3770492 27.1637931 74.3934426 27.1637931 75.4098361 27.1896552 76.4262295 27.2241379 77.442623 27.2672414 78.4590164 27.3275862 79.4754098 27.3793103 80.4918033 27.4482759 81.5081967 27.5086207 82.5245902 27.5603448 83.5409836 27.612069 84.557377 27.6551724 85.5737705 27.6896552 86.5901639 27.7068966 87.6065574 27.7241379 88.6229508 27.7327586 89.6393443 27.7327586 90.6557377 27.7241379 91.6721311 27.7155172 92.6885246 27.6982759 93.704918 27.6810345 94.7213115 27.6551724 95.7377049 27.637931 96.7540984 27.612069 97.7704918 27.5948276 98.7868852 27.5775862 99.8032787 27.5603448"></polyline>
        </g>
    </g>
</svg>