<?xml version="1.0" encoding="UTF-8"?>
<svg width="100px" height="100px" viewBox="0 0 100 100" version="1.1" xmlns="http://www.w3.org/2000/svg" xmlns:xlink="http://www.w3.org/1999/xlink">
    <title>ScaleDown</title>
    <g id="Page-1" stroke="none" stroke-width="1" fill="none" fill-rule="evenodd">
        <g id="ScaleDown">
            <rect id="Rectangle" fill="#005392" transform="translate(50.000000, 50.000000) scale(-1, -1) rotate(-90.000000) translate(-50.000000, -50.000000) " x="33" y="33" width="34" height="34" rx="2"></rect>
            <polygon id="Triangle" fill="#005392" transform="translate(24.000000, 26.000000) rotate(-585.000000) translate(-24.000000, -26.000000) " points="24 22 28 30 20 30"></polygon>
            <polygon id="Triangle" fill="#005392" transform="translate(24.000000, 74.000000) scale(1, -1) rotate(-225.000000) translate(-24.000000, -74.000000) " points="24 70 28 78 20 78"></polygon>
            <polygon id="Triangle" fill="#005392" transform="translate(76.000000, 26.000000) scale(-1, 1) rotate(-585.000000) translate(-76.000000, -26.000000) " points="76 22 80 30 72 30"></polygon>
            <polygon id="Triangle" fill="#005392" transform="translate(76.000000, 74.000000) scale(-1, -1) rotate(-225.000000) translate(-76.000000, -74.000000) " points="76 70 80 78 72 78"></polygon>
        </g>
    </g>
</svg>